<?xml version="1.0" encoding="utf-8"?>
<!-- Generator: Adobe Illustrator 16.0.0, SVG Export Plug-In . SVG Version: 6.00 Build 0)  -->
<!DOCTYPE svg PUBLIC "-//W3C//DTD SVG 1.1//EN" "http://www.w3.org/Graphics/SVG/1.1/DTD/svg11.dtd">
<svg version="1.1" xmlns="http://www.w3.org/2000/svg" xmlns:xlink="http://www.w3.org/1999/xlink" x="0px" y="0px" width="100px"
	 height="100px" viewBox="0 0 100 100" enable-background="new 0 0 100 100" xml:space="preserve">
<g id="OBJECTS">
	<g>
		<path fill="#138C18" d="M27.777,73.887c-1.976-1.103-4.627-1.304-6.675-2.331c-2.943-1.474-4.025-4.282-4.897-6.857
			c-1.231-3.638-2.462-7.272-3.693-10.91c-1.04-3.071-2.083-6.157-2.501-9.312c-0.787-5.953,0.68-11.935,2.313-17.79
			c1.48-5.302,3.235-10.791,7.809-14.979c5.536-5.07,14.32-7.422,22.851-8.812c8.851-1.441,18.77-1.952,26.32,1.805
			c2.437,1.212,4.485,2.807,6.511,4.388c3.723,2.907,7.547,5.93,9.393,9.717c1.097,2.25,1.438,4.659,1.958,7.023
			c0.72,3.274,1.797,6.502,2.421,9.787c2.135,11.233-1.265,23.014-9.4,32.574c-2.172,2.552-4.713,4.983-7.992,6.745
			c-5.896,3.171-13.462,3.852-20.672,4.433c-2.019,0.162-4.038,0.326-6.056,0.489c-4.441,0.357-9.48,0.579-12.789-1.674
			C30.811,76.913,29.8,75.014,27.777,73.887z"/>
		<g>
			<g>
				<path fill="#729831" d="M43.441,25.643c-0.389,0.95-1.532,1.295-2.315,1.958c-1.074,0.91-1.433,2.566-0.831,3.839
					c0.515,1.088,1.618,1.856,1.955,3.012c0.706,2.422-2.296,5.026-1.112,7.254c0.888,1.671,3.741,2.039,3.844,3.929
					c0.065,1.203-1.156,2.179-1.14,3.384c0.021,1.55,1.947,2.285,3.496,2.281c1.567-0.003,3.131-0.34,4.562-0.979
					c1.005-0.449,1.976-1.08,2.547-2.021c0.571-0.943,0.645-2.246-0.051-3.1c-0.55-0.676-1.54-1.078-1.669-1.94
					c-0.097-0.641,0.353-1.23,0.813-1.689c1.005-1.004,2.211-1.841,2.961-3.048c0.75-1.208,0.876-2.986-0.209-3.903
					c-0.78-0.659-2.061-0.796-2.441-1.744c-0.223-0.558-0.027-1.187,0.183-1.75c0.492-1.318,1.061-2.639,1.15-4.043
					c0.091-1.404-0.41-2.947-1.616-3.671c-1.172-0.703-2.745-0.503-3.865-1.285c-0.709-0.495-1.12-1.302-1.669-1.969
					c-0.55-0.667-1.415-1.236-2.238-0.969c-0.38,0.124-0.686,0.41-0.944,0.715c-0.892,1.055-1.372,2.448-1.319,3.828
					C43.554,24.375,43.686,25.047,43.441,25.643z"/>
				<path fill="#D9EBB9" d="M51.875,40.076c1.061-0.949,1.873-2.078,2.406-3.397c0.021-0.054-0.053-0.092-0.08-0.041
					c-0.616,1.139-1.414,2.166-2.386,3.021c-0.466,0.41-0.971,0.764-1.502,1.083c-0.258,0.155-0.536,0.276-0.811,0.398
					c-0.119-2.143-0.268-4.284-0.456-6.421c1.085-0.78,1.886-2.233,2.458-3.38c0.7-1.4,1.072-2.925,1.165-4.484
					c0.002-0.042-0.069-0.046-0.075-0.004c-0.203,1.438-0.633,2.822-1.267,4.129c-0.348,0.716-0.783,1.386-1.262,2.019
					c-0.322,0.425-0.716,0.798-1.066,1.2c-0.201-2.211-0.444-4.419-0.745-6.621c-0.114,2.656-0.193,5.314-0.242,7.972
					c-1.05-0.574-2.013-1.162-2.88-2.085c-1.09-1.16-1.784-2.578-2.238-4.09c-0.021-0.074-0.148-0.049-0.134,0.028
					c0.285,1.595,1.072,3.063,2.121,4.284c0.8,0.931,1.925,1.892,3.125,2.386c-0.041,2.373-0.052,4.747-0.039,7.12
					c-0.665-0.424-1.336-0.829-1.95-1.344c-0.951-0.796-1.761-1.744-2.475-2.753c-0.057-0.081-0.177,0.001-0.127,0.085
					c1.017,1.729,2.665,3.625,4.554,4.535c0.01,1.553,0.035,3.105,0.067,4.657c-0.205-0.07-0.407-0.152-0.608-0.256
					c-0.742-0.39-1.312-0.979-1.831-1.621c-0.072-0.088-0.199-0.002-0.146,0.098c0.493,0.919,1.501,1.842,2.595,2.253
					c0.064,2.91,0.163,5.821,0.308,8.729c0.042,0.86,1.247,1.116,1.582,0.322c0.003-0.006,0.005-0.011,0.008-0.017
					c0.108-0.271,0.103-0.572,0.097-0.866c-0.056-2.445-0.113-4.893-0.187-7.339c1.476-0.278,2.9-1.56,3.421-2.839
					c0.028-0.068-0.068-0.147-0.116-0.078c-0.511,0.749-1.098,1.362-1.865,1.852c-0.468,0.299-0.955,0.439-1.457,0.553
					c-0.078-2.512-0.177-5.022-0.312-7.531C50.395,41.293,51.249,40.636,51.875,40.076z"/>
			</g>
			<path fill="#D9EBB9" d="M47.072,54.499l4.968,0.213l-0.994,7.346c-0.089,0.665-0.665,1.154-1.335,1.138l-0.908-0.023
				c-0.682-0.016-1.238-0.553-1.279-1.233L47.072,54.499z"/>
			<g>
				<path fill="#84AA39" d="M40.007,34.234c-0.242,0.868-1.204,1.287-1.818,1.945c-0.843,0.903-0.986,2.385-0.331,3.432
					c0.561,0.896,1.602,1.452,2.015,2.425c0.862,2.039-1.486,4.618-0.226,6.438c0.946,1.368,3.472,1.396,3.754,3.034
					c0.18,1.041-0.784,2.018-0.646,3.066c0.177,1.348,1.933,1.793,3.282,1.63c1.366-0.163,2.696-0.618,3.877-1.32
					c0.83-0.496,1.612-1.147,2.013-2.027c0.401-0.88,0.332-2.022-0.363-2.695c-0.548-0.533-1.452-0.783-1.654-1.52
					c-0.152-0.551,0.18-1.111,0.535-1.559c0.774-0.979,1.739-1.833,2.269-2.962c0.531-1.13,0.458-2.693-0.583-3.381
					c-0.747-0.494-1.879-0.483-2.308-1.27c-0.252-0.463-0.146-1.032-0.02-1.543c0.292-1.2,0.654-2.41,0.589-3.644
					c-0.066-1.233-0.661-2.527-1.788-3.035c-1.094-0.493-2.445-0.156-3.501-0.723c-0.67-0.359-1.11-1.021-1.658-1.546
					c-0.547-0.525-1.361-0.933-2.05-0.616c-0.319,0.148-0.556,0.429-0.75,0.722c-0.67,1.011-0.945,2.275-0.758,3.474
					C39.975,33.118,40.158,33.69,40.007,34.234z"/>
				<path fill="#D9EBB9" d="M48.842,45.953c0.828-0.936,1.419-2.004,1.749-3.209c0.014-0.049-0.054-0.074-0.074-0.027
					c-0.419,1.057-1.01,2.034-1.77,2.88c-0.364,0.404-0.769,0.766-1.199,1.098c-0.209,0.162-0.438,0.297-0.666,0.43
					c-0.325-1.855-0.675-3.707-1.058-5.551c0.867-0.792,1.416-2.141,1.798-3.199c0.466-1.293,0.633-2.661,0.554-4.03
					c-0.002-0.037-0.064-0.033-0.066,0.003c-0.029,1.275-0.262,2.527-0.681,3.731c-0.229,0.66-0.539,1.289-0.892,1.89
					c-0.237,0.404-0.542,0.769-0.807,1.155c-0.402-1.907-0.841-3.807-1.33-5.695c0.173,2.328,0.377,4.653,0.608,6.976
					c-0.975-0.393-1.875-0.806-2.725-1.522c-1.07-0.9-1.821-2.065-2.372-3.336c-0.027-0.062-0.134-0.028-0.114,0.038
					c0.412,1.362,1.249,2.561,2.29,3.518c0.793,0.729,1.873,1.451,2.968,1.76c0.21,2.073,0.443,4.144,0.697,6.213
					c-0.622-0.303-1.249-0.587-1.838-0.973c-0.91-0.596-1.715-1.339-2.44-2.147c-0.059-0.064-0.155,0.021-0.103,0.089
					c1.064,1.402,2.695,2.889,4.436,3.487c0.168,1.353,0.35,2.703,0.537,4.053c-0.186-0.041-0.371-0.091-0.556-0.161
					c-0.688-0.262-1.245-0.717-1.764-1.224c-0.071-0.069-0.173,0.02-0.116,0.1c0.524,0.75,1.498,1.451,2.494,1.697
					c0.354,2.532,0.74,5.06,1.164,7.58c0.126,0.747,1.203,0.847,1.414,0.118c0.001-0.004,0.002-0.01,0.005-0.016
					c0.066-0.246,0.031-0.511-0.005-0.764c-0.3-2.127-0.601-4.255-0.916-6.381c1.257-0.394,2.368-1.658,2.691-2.826
					c0.017-0.064-0.075-0.122-0.109-0.056c-0.368,0.705-0.816,1.299-1.436,1.805c-0.377,0.309-0.787,0.481-1.213,0.633
					c-0.326-2.182-0.67-4.361-1.045-6.536C47.677,47.168,48.354,46.506,48.842,45.953z"/>
			</g>
			<g>
				<path fill="#8EC124" d="M50.125,29.14c-0.553,0.865-1.739,1.001-2.628,1.515c-1.219,0.704-1.866,2.27-1.501,3.629
					c0.313,1.162,1.263,2.115,1.388,3.312c0.262,2.508-3.155,4.537-2.386,6.94c0.576,1.804,3.318,2.672,3.082,4.552
					c-0.15,1.195-1.524,1.937-1.723,3.126c-0.255,1.528,1.509,2.597,3.033,2.868c1.542,0.274,3.142,0.223,4.663-0.153
					c1.069-0.263,2.137-0.711,2.866-1.536c0.729-0.825,1.035-2.095,0.501-3.059c-0.421-0.763-1.322-1.336-1.297-2.205
					c0.018-0.649,0.567-1.15,1.102-1.52c1.168-0.81,2.503-1.418,3.456-2.472c0.954-1.056,1.395-2.783,0.489-3.877
					c-0.65-0.788-1.886-1.151-2.091-2.151c-0.121-0.588,0.184-1.172,0.49-1.689c0.718-1.21,1.514-2.408,1.853-3.773
					c0.338-1.365,0.121-2.973-0.938-3.9c-1.029-0.901-2.611-0.983-3.575-1.952c-0.609-0.612-0.87-1.48-1.292-2.235
					c-0.423-0.754-1.173-1.469-2.029-1.351c-0.397,0.054-0.748,0.281-1.057,0.536c-1.065,0.878-1.786,2.164-1.98,3.532
					C50.46,27.914,50.469,28.598,50.125,29.14z"/>
				<path fill="#D9EBB9" d="M55.854,44.845c1.213-0.746,2.213-1.713,2.973-2.916c0.031-0.048-0.036-0.099-0.072-0.054
					c-0.809,1.011-1.776,1.879-2.885,2.547c-0.53,0.321-1.092,0.58-1.67,0.799c-0.282,0.106-0.577,0.177-0.87,0.248
					c0.265-2.132,0.499-4.264,0.695-6.4c1.207-0.575,2.253-1.861,3.021-2.888c0.938-1.253,1.574-2.688,1.943-4.206
					c0.01-0.042-0.059-0.058-0.073-0.018c-0.456,1.379-1.125,2.666-1.981,3.838c-0.469,0.643-1.017,1.224-1.601,1.762
					c-0.393,0.361-0.846,0.658-1.263,0.992c0.196-2.212,0.349-4.428,0.445-6.647c-0.585,2.593-1.136,5.194-1.657,7.801
					c-0.932-0.751-1.775-1.502-2.464-2.564c-0.866-1.337-1.296-2.855-1.474-4.422c-0.008-0.077-0.137-0.076-0.137,0.002
					c-0.004,1.621,0.51,3.205,1.325,4.593c0.622,1.059,1.558,2.204,2.65,2.904c-0.462,2.328-0.896,4.662-1.307,7
					c-0.578-0.537-1.167-1.055-1.68-1.671c-0.792-0.952-1.422-2.03-1.945-3.148c-0.042-0.091-0.173-0.03-0.139,0.062
					c0.692,1.88,1.975,4.041,3.673,5.272c-0.267,1.528-0.517,3.061-0.762,4.595c-0.189-0.106-0.375-0.223-0.553-0.362
					c-0.662-0.513-1.117-1.193-1.514-1.918c-0.055-0.101-0.195-0.037-0.16,0.07c0.322,0.992,1.15,2.078,2.153,2.678
					c-0.455,2.876-0.875,5.757-1.251,8.645c-0.111,0.854,1.029,1.321,1.5,0.6c0.003-0.005,0.007-0.011,0.01-0.017
					c0.155-0.247,0.203-0.545,0.249-0.833c0.38-2.417,0.76-4.835,1.124-7.255c1.501-0.012,3.131-1.021,3.871-2.187
					c0.04-0.062-0.041-0.156-0.101-0.097c-0.635,0.646-1.322,1.145-2.165,1.489c-0.513,0.211-1.018,0.264-1.531,0.287
					c0.37-2.486,0.719-4.976,1.033-7.468C54.181,45.779,55.138,45.283,55.854,44.845z"/>
			</g>
		</g>
		<path fill="#8EC124" d="M83.908,38.845c-1.314,1.064-3.115,1.314-4.804,1.227c-0.726-0.037-1.462-0.128-2.173,0.022
			c-1.022,0.216-1.901,0.933-2.434,1.831c-0.535,0.898-0.746,1.962-0.731,3.008c1.311-0.929,2.802-1.6,4.367-1.963
			c0.907-0.212,1.961-0.41,2.512-1.109c-1.585,2.451-4.194,4.221-7.063,4.77c2.437,1.372,5.826,0.709,7.567-1.479
			C82.581,43.348,82.85,40.892,83.908,38.845z"/>
		<path fill="#8EC124" d="M16.506,49.454c1.314-1.065,3.116-1.314,4.805-1.229c0.726,0.037,1.462,0.128,2.173-0.022
			c1.022-0.217,1.901-0.934,2.434-1.832c0.534-0.897,0.745-1.962,0.731-3.007c-1.31,0.929-2.802,1.6-4.367,1.964
			c-0.907,0.211-1.961,0.408-2.512,1.107c1.585-2.45,4.194-4.222,7.063-4.769c-2.437-1.374-5.827-0.71-7.567,1.479
			C17.833,44.95,17.564,47.406,16.506,49.454z"/>
		<path fill="#FFFFFF" d="M74.117,18.535c-0.129-0.09-0.24,0.115-0.12,0.207c2.4,1.833,4.224,4.318,5.391,7.093
			c1.091,2.595,1.171,5.203,1.368,7.956c0.021,0.291,0.457,0.383,0.53,0.072C82.662,28.068,78.714,21.705,74.117,18.535z"/>
		<path fill="#FFFFFF" d="M72.079,20.799c-0.087-0.055-0.16,0.078-0.08,0.137c3.847,2.793,5.292,6.695,5.686,11.263
			c0.026,0.312,0.443,0.304,0.478,0C78.688,27.713,75.733,23.125,72.079,20.799z"/>
		<path fill="#FFFFFF" d="M79.119,54.069c-0.975,2.128-1.818,4.106-3.302,5.949c-1.439,1.788-3.248,3.246-5.232,4.386
			c-0.171,0.1-0.021,0.351,0.155,0.264c3.987-1.986,7.911-5.892,8.858-10.397C79.656,53.994,79.249,53.786,79.119,54.069z"/>
		<path fill="#FFFFFF" d="M76.811,51.716c-0.703,2.612-1.482,4.785-3.551,6.658c-0.134,0.122,0.058,0.303,0.194,0.194
			c2.005-1.592,3.78-4.139,3.807-6.792C77.263,51.517,76.877,51.465,76.811,51.716z"/>
		<path fill="#FFFFFF" d="M30.02,64.512c-1.755-1.571-3.627-2.763-5.146-4.617c-1.766-2.157-2.875-4.737-3.672-7.383
			c-0.058-0.193-0.326-0.11-0.294,0.08c0.434,2.673,1.589,5.109,3.155,7.301c1.379,1.93,3.445,4.179,5.72,5.027
			C30.012,65.006,30.197,64.67,30.02,64.512z"/>
		<path fill="#FFFFFF" d="M33.426,62.573c-1.489-0.904-3.004-1.538-4.372-2.663c-1.442-1.186-2.661-2.698-3.56-4.329
			c-0.075-0.136-0.275-0.016-0.206,0.12c1.535,3.062,4.433,6.524,7.963,7.287C33.5,63.041,33.651,62.71,33.426,62.573z"/>
		<path fill="#FFFFFF" d="M21.399,24.532c-2.243,3.202-2.89,7.646-2.714,11.465c0.009,0.202,0.319,0.205,0.315,0
			c-0.078-4.175,1.162-7.547,2.692-11.342C21.765,24.476,21.497,24.393,21.399,24.532z"/>
		<path fill="#FFFFFF" d="M21.96,20.447c-3.223,2.891-4.979,7.343-5.468,11.558c-0.013,0.11,0.18,0.136,0.195,0.026
			c0.627-4.45,2.683-7.951,5.51-11.347C22.335,20.519,22.124,20.3,21.96,20.447z"/>
	</g>
	<g>
		<path d="M29.073,92.152c-0.2,0.355-0.504,0.642-0.912,0.857c-0.408,0.216-0.908,0.324-1.5,0.324c-0.576,0-1.092-0.102-1.548-0.306
			c-0.456-0.204-0.82-0.49-1.092-0.858s-0.428-0.792-0.468-1.271h1.464c0.04,0.367,0.198,0.684,0.474,0.947
			c0.276,0.265,0.646,0.396,1.11,0.396c0.416,0,0.738-0.112,0.966-0.336c0.228-0.225,0.342-0.512,0.342-0.864
			c0-0.304-0.084-0.554-0.252-0.75s-0.376-0.35-0.624-0.462c-0.248-0.112-0.588-0.24-1.02-0.384
			c-0.528-0.168-0.958-0.336-1.29-0.504c-0.332-0.168-0.614-0.412-0.846-0.732s-0.348-0.74-0.348-1.26
			c0-0.456,0.112-0.856,0.336-1.2c0.224-0.344,0.544-0.61,0.96-0.798c0.416-0.188,0.896-0.282,1.44-0.282
			c0.864,0,1.55,0.208,2.058,0.624c0.508,0.416,0.798,0.96,0.87,1.632h-1.476c-0.056-0.319-0.206-0.594-0.45-0.822
			c-0.244-0.228-0.578-0.342-1.002-0.342c-0.384,0-0.692,0.099-0.924,0.294c-0.232,0.196-0.348,0.479-0.348,0.847
			c0,0.288,0.08,0.525,0.24,0.714c0.16,0.188,0.362,0.336,0.606,0.443c0.244,0.108,0.578,0.234,1.002,0.379
			c0.536,0.168,0.974,0.338,1.314,0.51c0.34,0.172,0.628,0.422,0.864,0.75s0.354,0.76,0.354,1.296
			C29.373,91.41,29.272,91.796,29.073,92.152z"/>
		<path d="M35.433,86.998c0.424,0.296,0.724,0.688,0.9,1.176v-1.536h1.368v6.612h-1.368v-1.536c-0.176,0.488-0.476,0.88-0.9,1.176
			c-0.424,0.297-0.936,0.444-1.536,0.444c-0.576,0-1.09-0.136-1.542-0.408c-0.452-0.271-0.806-0.664-1.062-1.176
			s-0.384-1.116-0.384-1.812c0-0.688,0.128-1.288,0.384-1.801c0.256-0.512,0.61-0.903,1.062-1.176
			c0.452-0.271,0.966-0.408,1.542-0.408C34.497,86.554,35.008,86.702,35.433,86.998z M32.858,88.336
			c-0.364,0.389-0.546,0.922-0.546,1.603c0,0.68,0.182,1.214,0.546,1.602s0.85,0.582,1.458,0.582c0.384,0,0.728-0.09,1.032-0.271
			c0.304-0.18,0.544-0.434,0.72-0.762s0.264-0.712,0.264-1.151c0-0.433-0.088-0.814-0.264-1.146s-0.416-0.588-0.72-0.768
			c-0.304-0.181-0.648-0.271-1.032-0.271C33.708,87.754,33.223,87.948,32.858,88.336z"/>
		<path d="M40.628,86.638l1.98,4.86l1.836-4.86h1.524l-3.996,9.756h-1.524l1.428-3.3l-2.784-6.456H40.628z"/>
		<path d="M53.468,86.638v6.612h-1.38v-1.44c-0.168,0.488-0.46,0.866-0.876,1.135c-0.416,0.268-0.9,0.401-1.452,0.401
			c-0.768,0-1.384-0.248-1.848-0.744c-0.464-0.495-0.696-1.203-0.696-2.124v-3.84h1.368v3.696c0,0.6,0.152,1.063,0.456,1.386
			c0.304,0.324,0.72,0.486,1.248,0.486c0.544,0,0.979-0.176,1.308-0.528c0.328-0.352,0.492-0.863,0.492-1.536v-3.504H53.468z"/>
		<path d="M57.944,86.908c0.416-0.252,0.896-0.378,1.44-0.378v1.487h-0.408c-0.6,0-1.082,0.146-1.446,0.438
			c-0.364,0.292-0.546,0.774-0.546,1.446v3.348h-1.368v-6.612h1.368v1.296C57.208,87.502,57.528,87.16,57.944,86.908z"/>
		<path d="M65.096,86.998c0.424,0.296,0.724,0.688,0.9,1.176v-1.536h1.368v6.612h-1.368v-1.536c-0.176,0.488-0.476,0.88-0.9,1.176
			c-0.424,0.297-0.936,0.444-1.536,0.444c-0.576,0-1.09-0.136-1.542-0.408c-0.452-0.271-0.806-0.664-1.062-1.176
			s-0.384-1.116-0.384-1.812c0-0.688,0.128-1.288,0.384-1.801c0.256-0.512,0.61-0.903,1.062-1.176
			c0.452-0.271,0.966-0.408,1.542-0.408C64.16,86.554,64.672,86.702,65.096,86.998z M62.522,88.336
			c-0.364,0.389-0.546,0.922-0.546,1.603c0,0.68,0.182,1.214,0.546,1.602s0.85,0.582,1.458,0.582c0.384,0,0.728-0.09,1.032-0.271
			c0.304-0.18,0.544-0.434,0.72-0.762s0.264-0.712,0.264-1.151c0-0.433-0.088-0.814-0.264-1.146s-0.416-0.588-0.72-0.768
			c-0.304-0.181-0.648-0.271-1.032-0.271C63.372,87.754,62.886,87.948,62.522,88.336z"/>
		<path d="M75.056,87.274c0.464,0.496,0.696,1.204,0.696,2.124v3.852h-1.368v-3.708c0-0.592-0.152-1.05-0.456-1.374
			c-0.304-0.324-0.72-0.486-1.248-0.486c-0.544,0-0.98,0.175-1.308,0.522s-0.492,0.857-0.492,1.53v3.516h-1.368v-6.612h1.368v1.452
			c0.176-0.496,0.472-0.88,0.888-1.151c0.416-0.272,0.896-0.408,1.44-0.408C73.976,86.53,74.591,86.778,75.056,87.274z"/>
	</g>
</g>
<g id="DESIGNED_BY_FREEPIK">
</g>
</svg>
