<?xml version="1.0" encoding="utf-8"?>
<!-- Generator: Adobe Illustrator 16.0.0, SVG Export Plug-In . SVG Version: 6.00 Build 0)  -->
<!DOCTYPE svg PUBLIC "-//W3C//DTD SVG 1.1//EN" "http://www.w3.org/Graphics/SVG/1.1/DTD/svg11.dtd">
<svg version="1.1" xmlns="http://www.w3.org/2000/svg" xmlns:xlink="http://www.w3.org/1999/xlink" x="0px" y="0px" width="100px"
	 height="100px" viewBox="0 0 100 100" enable-background="new 0 0 100 100" xml:space="preserve">
<g id="OBJECTS">
	<g>
		<path fill="#F6462E" d="M74.597,38.908c0.106-0.546,0.079-1.105-0.08-1.64l-1.129-3.791l-0.797-2.459
			c-0.307-0.947-1.011-1.75-1.961-2.234l-1.448-0.739c-0.916-0.467-1.993-0.606-3.017-0.39l-2.317,0.491
			c-0.477,0.102-0.971,0.126-1.457,0.073l-3.488-0.379c-0.271-0.029-0.538-0.083-0.798-0.159l-1.353-0.399
			c-1.836-0.541-3.026-2.145-2.882-3.885l0.07-0.843c0.037-0.438,0.156-0.866,0.354-1.267l2.289-4.617
			c0.222-0.447,0.537-0.85,0.928-1.188l2.326-2.011c0.553-0.479,0.951-1.085,1.15-1.753l0.333-1.12
			c0.255-0.857,0.169-1.768-0.243-2.573l-0.432-0.845c-0.385-0.754-1.034-1.373-1.846-1.761L55.724,3.95
			c-3.292-1.824-9.348-0.48-10.206-0.384c-0.435,0.068-0.854,0.198-1.243,0.384l-3.074,1.469c-0.812,0.388-1.461,1.007-1.846,1.761
			l-0.432,0.845c-0.412,0.806-0.497,1.716-0.242,2.573l0.333,1.12c0.199,0.668,0.597,1.275,1.15,1.753l2.326,2.011
			c0.391,0.338,0.706,0.742,0.927,1.188l2.29,4.617c0.199,0.401,0.319,0.829,0.355,1.267l0.07,0.843
			c0.144,1.741-1.046,3.345-2.882,3.885l-1.353,0.399c-0.259,0.077-0.526,0.13-0.798,0.159L37.61,28.22
			c-0.487,0.053-0.979,0.028-1.457-0.073l-2.317-0.491c-1.024-0.217-2.102-0.078-3.017,0.39l-1.447,0.739
			c-0.952,0.485-1.656,1.287-1.962,2.234l-0.797,2.459l-1.129,3.791c-0.159,0.535-0.187,1.094-0.081,1.64l0.612,3.151
			c0.081,0.412,0.084,0.833,0.012,1.247l-0.57,3.255c-0.083,0.478-0.065,0.964,0.054,1.436l0.893,3.536
			c0.059,0.234,0.093,0.475,0.103,0.715l0.137,3.694c0.014,0.363-0.031,0.725-0.131,1.076l-0.977,3.41
			c-0.126,0.439-0.164,0.896-0.111,1.348l0.414,3.537c0.029,0.254,0.031,0.512,0.003,0.766l-0.41,3.809
			c-0.03,0.275-0.025,0.555,0.012,0.83l0.455,3.346c0.076,0.557,0.287,1.092,0.619,1.564l1.076,1.537
			c0.385,0.549,0.92,1,1.554,1.309l1.361,0.662c0.714,0.348,1.526,0.5,2.335,0.439l3.202-0.24c0.205-0.016,0.409-0.018,0.614-0.008
			l4.212,0.242c0.152,0.008,0.305,0.01,0.458,0.004l4.224-0.176c0.199-0.008,0.397-0.004,0.595,0.014l3.523,0.305l0.004,0.059
			L50,79.743l0.325,0.029l0.005-0.059l3.523-0.305c0.197-0.018,0.396-0.021,0.594-0.014l4.224,0.176
			c0.153,0.006,0.306,0.004,0.458-0.004l4.212-0.242c0.204-0.01,0.41-0.008,0.613,0.008l3.203,0.24
			c0.809,0.061,1.621-0.092,2.335-0.439l1.36-0.662c0.634-0.309,1.169-0.76,1.554-1.309l1.076-1.537
			c0.332-0.473,0.543-1.008,0.619-1.564l0.455-3.346c0.038-0.275,0.041-0.555,0.011-0.83l-0.41-3.809
			c-0.027-0.254-0.026-0.512,0.003-0.766l0.414-3.537c0.053-0.451,0.015-0.908-0.111-1.348l-0.977-3.41
			c-0.101-0.352-0.145-0.713-0.131-1.076l0.137-3.694c0.009-0.24,0.043-0.48,0.103-0.715l0.892-3.536
			c0.119-0.472,0.138-0.958,0.054-1.436l-0.569-3.255c-0.073-0.413-0.069-0.835,0.011-1.247L74.597,38.908z M50,12.192
			c-1.57,0-2.842-1.15-2.842-2.568S48.431,7.056,50,7.056c1.568,0,2.841,1.15,2.841,2.568S51.569,12.192,50,12.192z"/>
		<path fill="#8EC124" d="M67.895,16.688c0.1-0.894,0.201-1.787,0.301-2.68c-0.707,0.189-1.413,0.377-2.12,0.566
			c-1.004,0.269-2.045,0.555-2.835,1.231c-1.206,1.029-1.574,2.762-1.459,4.342c0.011,0.159,0.047,0.346,0.193,0.408
			c0.151,0.064,0.315-0.05,0.439-0.157c1.042-0.895,2.084-1.79,3.126-2.685c-0.987,2.324-2.668,4.347-4.772,5.742
			c1.09-0.024,2.176-0.206,3.214-0.538c0.66-0.211,1.309-0.487,1.849-0.922C67.351,20.772,67.677,18.626,67.895,16.688z"/>
		<path fill="#1F6124" d="M36.744,18.084c-0.854-0.282-1.707-0.563-2.561-0.844c0.04,0.73,0.08,1.46,0.119,2.191
			c0.057,1.038,0.124,2.116,0.623,3.028c0.76,1.39,2.38,2.106,3.95,2.319c0.158,0.021,0.349,0.025,0.439-0.105
			c0.094-0.135,0.016-0.319-0.063-0.463c-0.662-1.203-1.324-2.406-1.987-3.609c2.072,1.442,3.708,3.503,4.641,5.848
			c0.2-1.072,0.245-2.172,0.132-3.257c-0.071-0.688-0.208-1.381-0.522-1.998C40.63,19.455,38.597,18.695,36.744,18.084z"/>
		<path fill="#FFFFFF" d="M68.355,70.913c-0.535-0.779-1.103-1.539-1.657-2.305c-0.442-0.615-0.846-1.324-1.454-1.783
			c-0.11-0.084-0.256,0.053-0.222,0.17c0.207,0.711,0.716,1.324,1.121,1.938c0.519,0.787,1.026,1.584,1.565,2.359
			C67.981,71.685,68.63,71.313,68.355,70.913z"/>
		<path fill="#FFFFFF" d="M62.966,68.956c-0.017-0.512-0.03-1.029-0.122-1.533c-0.019-0.102-0.185-0.102-0.204,0
			c-0.08,0.434-0.093,0.877-0.115,1.318c-0.024,0.508-0.097,1.061,0.027,1.559c0.047,0.188,0.333,0.188,0.379,0
			C63.041,69.862,62.98,69.403,62.966,68.956z"/>
		<path fill="#FFFFFF" d="M70.968,65.854c-0.763-0.559-1.697-0.936-2.543-1.354c-0.203-0.098-0.372,0.184-0.177,0.305
			c0.82,0.51,1.646,1.105,2.544,1.467C71.051,66.376,71.159,65.995,70.968,65.854z"/>
		<path fill="#FFFFFF" d="M31.171,36.68c-0.366-0.738-0.825-1.434-1.25-2.139c-0.371-0.615-0.723-1.378-1.297-1.822
			c-0.174-0.134-0.448-0.019-0.385,0.224c0.183,0.71,0.741,1.311,1.156,1.905c0.481,0.69,0.965,1.396,1.512,2.037
			C31.037,37.039,31.252,36.843,31.171,36.68z"/>
		<path fill="#FFFFFF" d="M32.672,32.449c-0.055-0.156-0.317-0.193-0.353,0c-0.198,1.081,0.136,2.362,0.287,3.446
			c0.024,0.174,0.302,0.128,0.3-0.041C32.89,34.785,33.026,33.466,32.672,32.449z"/>
		<path fill="#FFFFFF" d="M29.21,38.345c-0.739-0.47-1.669-1.023-2.543-1.166c-0.226-0.037-0.33,0.223-0.151,0.359
			c0.703,0.537,1.744,0.834,2.592,1.049C29.256,38.624,29.337,38.425,29.21,38.345z"/>
		<g>
			<g>
				<g>
					<path fill="#F1D81C" d="M43.917,69.187c0,0,0.044,0.936-0.052,1.916c-0.061,0.625-0.187,1.275-0.407,1.711
						c-2.178,4.24-7.995,6.137-12.249,4.002c-4.26-2.137-6.208-7.938-4.107-12.211c0.074,0.01,0.147,0.02,0.229,0.035
						C31.45,65.339,43.917,69.187,43.917,69.187z"/>
					<path fill="#F3EBC6" d="M43.917,69.187c0,0,0.044,0.936-0.052,1.916c-2.521,3.525-7.737,4.957-11.64,2.992
						c-3.395-1.703-5.32-5.729-4.895-9.455C31.45,65.339,43.917,69.187,43.917,69.187z"/>
				</g>
			</g>
			<g>
				<path fill="#F1D81C" d="M41.489,71.978c0.011,0.238,0.004,0.486-0.084,0.709c-0.238,0.602-1.119,0.822-1.613,0.404
					c-0.384-0.324-0.477-0.883-0.443-1.385c0.062-0.928,0.475-1.828,1.138-2.479C41.086,70.015,41.44,70.987,41.489,71.978z"/>
			</g>
			<path fill="#F1D81C" d="M38.004,74.333c-0.362,0.295-0.875,0.393-1.321,0.256c-0.199-0.059-0.388-0.168-0.516-0.332
				c-0.226-0.289-0.226-0.689-0.196-1.055c0.147-1.773,0.791-3.502,1.838-4.939c0.219,1.049,0.436,2.098,0.654,3.145
				c0.105,0.51,0.212,1.027,0.176,1.547C38.604,73.474,38.407,74.005,38.004,74.333z"/>
			<path fill="#F1D81C" d="M33.024,74.14c-0.573-0.396-0.88-1.145-0.752-1.83c0.073-0.393,0.272-0.75,0.476-1.094
				c0.793-1.338,1.699-2.607,2.707-3.791c0.104,1.758,0.076,3.521-0.086,5.273c-0.04,0.439-0.098,0.904-0.37,1.252
				C34.549,74.524,33.623,74.556,33.024,74.14z"/>
			<path fill="#F1D81C" d="M29.446,70.815c0.322,0.262,0.799,0.195,1.18,0.033c1.119-0.475,1.816-1.58,2.43-2.629
				c0.203-0.346,0.409-0.707,0.434-1.105c-0.967,0.258-1.854,0.752-2.729,1.24c-0.515,0.285-1.05,0.592-1.373,1.084
				C29.111,69.86,29.055,70.497,29.446,70.815z"/>
			<path fill="#F1D81C" d="M27.957,67.329c-0.048,0.105-0.074,0.227-0.034,0.336c0.078,0.211,0.348,0.264,0.573,0.271
				c0.463,0.014,0.947-0.031,1.341-0.275c0.341-0.209,0.583-0.545,0.861-0.834c0.269-0.275,0.578-0.51,0.916-0.695
				c-0.966-0.051-1.942,0.129-2.828,0.518C28.451,66.798,28.108,66.997,27.957,67.329z"/>
		</g>
		<circle fill="#FFFFFF" cx="50" cy="50.101" r="12.926"/>
	</g>
	<g>
		<path d="M33.752,88.943c0.316,0.384,0.475,0.832,0.475,1.344c0,0.704-0.236,1.262-0.708,1.674
			c-0.473,0.412-1.156,0.618-2.052,0.618h-3.372v-8.472h3.312c0.848,0,1.498,0.189,1.95,0.569c0.452,0.381,0.678,0.902,0.678,1.566
			c0,0.536-0.14,0.97-0.42,1.302s-0.647,0.555-1.104,0.666C33.022,88.315,33.437,88.56,33.752,88.943z M29.462,87.755h1.692
			c0.48,0,0.846-0.111,1.098-0.336c0.252-0.224,0.378-0.536,0.378-0.936c0-0.393-0.126-0.7-0.378-0.924
			c-0.252-0.225-0.634-0.337-1.146-0.337h-1.645V87.755z M32.396,91.097c0.284-0.235,0.426-0.565,0.426-0.989
			s-0.144-0.756-0.432-0.996s-0.692-0.36-1.212-0.36h-1.717v2.7h1.729C31.71,91.451,32.112,91.333,32.396,91.097z"/>
		<path d="M42.11,85.967v6.612h-1.38v-1.44c-0.168,0.488-0.46,0.866-0.876,1.135c-0.416,0.268-0.9,0.401-1.452,0.401
			c-0.768,0-1.384-0.248-1.848-0.744c-0.465-0.495-0.696-1.203-0.696-2.124v-3.84h1.368v3.696c0,0.6,0.151,1.063,0.456,1.386
			c0.304,0.324,0.72,0.486,1.248,0.486c0.544,0,0.979-0.176,1.308-0.528c0.328-0.352,0.492-0.863,0.492-1.536v-3.504H42.11z"/>
		<path d="M54.404,86.604c0.468,0.496,0.702,1.204,0.702,2.124v3.852h-1.368v-3.708c0-0.576-0.144-1.021-0.432-1.338
			s-0.685-0.474-1.188-0.474c-0.536,0-0.962,0.17-1.277,0.51c-0.316,0.34-0.475,0.838-0.475,1.494v3.516h-1.368v-3.708
			c0-0.576-0.144-1.021-0.432-1.338s-0.684-0.474-1.188-0.474c-0.536,0-0.963,0.17-1.278,0.51c-0.316,0.34-0.475,0.838-0.475,1.494
			v3.516h-1.367v-6.612h1.367v1.38c0.168-0.479,0.448-0.848,0.841-1.104c0.392-0.256,0.852-0.384,1.38-0.384
			c0.552,0,1.029,0.136,1.434,0.408c0.404,0.271,0.698,0.664,0.882,1.176c0.192-0.496,0.5-0.884,0.924-1.164
			c0.425-0.28,0.904-0.42,1.44-0.42C53.311,85.859,53.937,86.107,54.404,86.604z"/>
		<path d="M62.54,86.291c0.452,0.272,0.806,0.664,1.063,1.176c0.256,0.513,0.384,1.112,0.384,1.801c0,0.695-0.128,1.3-0.384,1.812
			c-0.257,0.512-0.61,0.904-1.063,1.176c-0.452,0.272-0.966,0.408-1.542,0.408c-0.6,0-1.112-0.147-1.536-0.444
			c-0.424-0.296-0.72-0.688-0.888-1.176v1.536h-1.368v-8.88h1.368v3.804c0.168-0.487,0.464-0.88,0.888-1.176
			s0.937-0.444,1.536-0.444C61.574,85.883,62.088,86.02,62.54,86.291z M59.546,87.354c-0.304,0.18-0.544,0.436-0.72,0.768
			s-0.264,0.714-0.264,1.146c0,0.439,0.088,0.823,0.264,1.151s0.416,0.582,0.72,0.762c0.305,0.181,0.648,0.271,1.032,0.271
			c0.608,0,1.096-0.194,1.464-0.582s0.552-0.922,0.552-1.602c0-0.673-0.184-1.204-0.552-1.597c-0.368-0.392-0.855-0.588-1.464-0.588
			C60.194,87.083,59.851,87.173,59.546,87.354z"/>
		<path d="M71.905,85.967v6.612h-1.38v-1.44c-0.168,0.488-0.46,0.866-0.876,1.135c-0.416,0.268-0.899,0.401-1.452,0.401
			c-0.768,0-1.384-0.248-1.848-0.744c-0.464-0.495-0.696-1.203-0.696-2.124v-3.84h1.368v3.696c0,0.6,0.152,1.063,0.456,1.386
			c0.304,0.324,0.72,0.486,1.248,0.486c0.544,0,0.979-0.176,1.308-0.528c0.328-0.352,0.492-0.863,0.492-1.536v-3.504H71.905z"/>
	</g>
</g>
<g id="DESIGNED_BY_FREEPIK">
</g>
</svg>
