<?xml version="1.0" encoding="utf-8"?>
<!-- Generator: Adobe Illustrator 16.0.0, SVG Export Plug-In . SVG Version: 6.00 Build 0)  -->
<!DOCTYPE svg PUBLIC "-//W3C//DTD SVG 1.1//EN" "http://www.w3.org/Graphics/SVG/1.1/DTD/svg11.dtd">
<svg version="1.1" xmlns="http://www.w3.org/2000/svg" xmlns:xlink="http://www.w3.org/1999/xlink" x="0px" y="0px" width="100px"
	 height="100px" viewBox="0 0 100 100" enable-background="new 0 0 100 100" xml:space="preserve">
<g id="OBJECTS">
	<g>
		<g>
			<path fill="#1F6124" d="M95.146,28.175c-1.732,13.008-3.97,26.479-11.139,36.394c-6.356,8.775-16.035,13.616-25.743,14.302
				c-9.699,0.694-19.406-2.519-28.079-7.764c-4.148-2.502-8.14-5.526-11.311-9.58c-2.962-3.796-5.119-8.38-7.111-12.991
				c-2.819-6.521-5.394-13.265-6.91-20.36H95.146z"/>
			<path fill="#D9EBB9" d="M92.141,28.175c-1.596,11.903-3.904,23.917-10.089,32.966c-6.004,8.774-15.158,13.617-24.34,14.302
				c-9.176,0.686-18.357-2.519-26.556-7.764c-3.918-2.502-7.701-5.526-10.692-9.58c-2.805-3.797-4.847-8.381-6.73-12.991
				c-2.236-5.466-4.307-11.08-5.76-16.933H92.141z"/>
			<path fill="#C50C14" d="M91.012,28.175c-1.546,11.568-3.847,23.153-9.715,31.946c-5.859,8.775-14.798,13.616-23.765,14.302
				c-8.96,0.686-17.927-2.52-25.93-7.764c-3.825-2.502-7.521-5.527-10.441-9.581c-2.739-3.795-4.731-8.381-6.571-12.99
				c-2.057-5.15-3.97-10.428-5.364-15.913H91.012z"/>
			<g>
				<path fill="#1A202A" d="M86.351,32.443c-0.644-0.381-1.338-0.193-2.038-0.145c-0.733,0.051-1.482,0.074-2.159,0.447
					c-0.138,0.076-0.133,0.35,0,0.428c0.584,0.341,1.225,0.412,1.866,0.473c0.776,0.074,1.608,0.333,2.331-0.07
					C86.717,33.371,86.703,32.651,86.351,32.443z"/>
				<path fill="#1A202A" d="M84.411,40.82c-0.472-0.473-1.03-0.542-1.627-0.646c-0.592-0.102-1.199-0.268-1.799-0.2
					c-0.315,0.036-0.438,0.492-0.161,0.711c0.497,0.393,1.092,0.591,1.649,0.831c0.564,0.242,1.104,0.509,1.704,0.355
					C84.549,41.777,84.71,41.121,84.411,40.82z"/>
				<path fill="#1A202A" d="M80.366,50.988c-0.248-0.535-0.743-0.75-1.185-1c-0.462-0.263-0.916-0.484-1.398-0.684
					c-0.356-0.146-0.679,0.48-0.377,0.771c0.394,0.383,0.788,0.728,1.215,1.054c0.411,0.315,0.837,0.716,1.348,0.685
					C80.319,51.793,80.541,51.365,80.366,50.988z"/>
				<path fill="#1A202A" d="M77.524,60.116c-0.41-1.135-1.126-2.256-1.853-3.138c-0.38-0.459-0.936,0.121-0.715,0.657
					c0.456,1.116,1.104,2.279,1.87,3.121C77.22,61.188,77.718,60.65,77.524,60.116z"/>
				<path fill="#1A202A" d="M79.516,42.358c-0.414-0.525-0.992-0.56-1.558-0.694c-0.594-0.141-1.174-0.26-1.776-0.329
					c-0.337-0.039-0.488,0.607-0.176,0.773c0.551,0.294,1.102,0.533,1.673,0.76c0.551,0.218,1.072,0.53,1.653,0.317
					C79.636,43.075,79.733,42.634,79.516,42.358z"/>
				<path fill="#1A202A" d="M80.841,35.339c-0.838-0.335-1.616-0.396-2.49-0.231c-0.38,0.071-0.279,0.667,0,0.801
					c0.787,0.373,1.542,0.492,2.381,0.391C81.187,36.244,81.296,35.521,80.841,35.339z"/>
				<path fill="#1A202A" d="M76.232,52.246c-0.618-0.955-1.548-1.706-2.446-2.245c-0.354-0.212-0.672,0.288-0.415,0.642
					c0.629,0.863,1.449,1.768,2.338,2.226C76.01,53.023,76.496,52.655,76.232,52.246z"/>
			</g>
			<g>
				<path fill="#1A202A" d="M14.026,32.443c0.644-0.381,1.338-0.193,2.038-0.145c0.734,0.051,1.481,0.074,2.158,0.447
					c0.139,0.076,0.134,0.35,0,0.428c-0.583,0.341-1.223,0.412-1.865,0.473c-0.777,0.074-1.608,0.333-2.331-0.07
					C13.66,33.371,13.673,32.651,14.026,32.443z"/>
				<path fill="#1A202A" d="M15.966,40.82c0.472-0.473,1.03-0.542,1.626-0.646c0.592-0.102,1.2-0.268,1.799-0.2
					c0.315,0.036,0.438,0.492,0.162,0.711c-0.498,0.393-1.092,0.591-1.649,0.831c-0.564,0.242-1.104,0.509-1.705,0.355
					C15.827,41.777,15.667,41.121,15.966,40.82z"/>
				<path fill="#1A202A" d="M20.011,50.988c0.248-0.535,0.742-0.75,1.185-1c0.461-0.263,0.916-0.484,1.397-0.684
					c0.356-0.146,0.68,0.48,0.378,0.771c-0.395,0.383-0.787,0.728-1.215,1.054c-0.411,0.315-0.837,0.716-1.348,0.685
					C20.059,51.793,19.836,51.365,20.011,50.988z"/>
				<path fill="#1A202A" d="M24.47,58.687c0.41-1.135,1.125-2.256,1.854-3.138c0.378-0.459,0.935,0.121,0.715,0.657
					c-0.458,1.116-1.105,2.279-1.871,3.121C24.774,59.759,24.276,59.221,24.47,58.687z"/>
				<path fill="#1A202A" d="M20.861,42.358c0.414-0.525,0.99-0.56,1.558-0.694c0.594-0.141,1.174-0.26,1.776-0.329
					c0.338-0.039,0.488,0.607,0.176,0.773c-0.551,0.294-1.102,0.533-1.674,0.76c-0.55,0.218-1.073,0.53-1.653,0.317
					C20.741,43.075,20.644,42.634,20.861,42.358z"/>
				<path fill="#1A202A" d="M19.536,35.339c0.838-0.335,1.616-0.396,2.49-0.231c0.38,0.071,0.279,0.667,0,0.801
					c-0.788,0.373-1.542,0.492-2.381,0.391C19.189,36.244,19.08,35.521,19.536,35.339z"/>
				<path fill="#1A202A" d="M24.146,52.246c0.617-0.955,1.547-1.706,2.445-2.245c0.354-0.212,0.672,0.288,0.415,0.642
					c-0.629,0.863-1.45,1.768-2.338,2.226C24.367,53.023,23.88,52.655,24.146,52.246z"/>
			</g>
		</g>
		<path fill="#C50C14" d="M19.848,18.713c-0.807,0.85-0.744,2.176-0.632,3.343c0.058,0.585,0.12,1.189,0.401,1.706
			c0.637,1.17,2.136,1.509,3.459,1.661c2.396,0.275,4.815,0.336,7.222,0.182c0.141-0.009,0.287-0.021,0.404-0.099
			c0.147-0.097,0.216-0.275,0.272-0.442c0.767-2.253,1.088-4.656,0.94-7.03c-0.111-1.802-0.547-3.692-1.813-4.978
			c-1.267-1.286-3.559-1.678-4.864-0.431c-0.831,0.793-1.082,2.018-1.108,3.166c-0.023,0.965,0.082,1.933,0.311,2.871
			C22.926,18.054,20.972,17.53,19.848,18.713z"/>
		<path fill="#C50C14" d="M30.694,6.322c-0.392,0.411-0.361,1.055-0.306,1.62c0.027,0.285,0.058,0.578,0.194,0.828
			c0.309,0.567,1.035,0.732,1.678,0.806c1.161,0.132,2.335,0.162,3.502,0.087c0.067-0.004,0.139-0.01,0.195-0.047
			c0.072-0.047,0.105-0.133,0.133-0.215c0.371-1.092,0.527-2.257,0.456-3.409c-0.054-0.874-0.265-1.791-0.88-2.414
			c-0.613-0.624-1.726-0.814-2.358-0.209c-0.402,0.385-0.524,0.979-0.537,1.536c-0.012,0.468,0.039,0.937,0.15,1.392
			C32.188,6.001,31.239,5.747,30.694,6.322z"/>
		<path fill="#C50C14" d="M37.777,11.868c-0.433-0.28-1.001-0.146-1.495-0.004c-0.249,0.071-0.505,0.146-0.706,0.31
			c-0.455,0.369-0.48,1.044-0.44,1.628c0.073,1.058,0.241,2.108,0.501,3.135c0.016,0.06,0.032,0.123,0.075,0.167
			c0.054,0.056,0.137,0.07,0.213,0.082c1.035,0.15,2.1,0.097,3.114-0.158c0.77-0.192,1.552-0.532,2.007-1.183
			c0.453-0.651,0.438-1.672-0.205-2.137c-0.409-0.295-0.958-0.306-1.457-0.225c-0.419,0.068-0.829,0.19-1.216,0.365
			C38.309,13.146,38.378,12.259,37.777,11.868z"/>
	</g>
	<g>
		<path d="M11.498,89.698c0.316,0.384,0.475,0.832,0.475,1.344c0,0.704-0.236,1.262-0.708,1.674
			c-0.473,0.412-1.156,0.618-2.052,0.618H5.841v-8.472h3.312c0.848,0,1.498,0.189,1.95,0.569c0.452,0.381,0.678,0.902,0.678,1.566
			c0,0.536-0.14,0.97-0.42,1.302s-0.647,0.555-1.104,0.666C10.769,89.07,11.183,89.314,11.498,89.698z M7.208,88.51H8.9
			c0.48,0,0.846-0.111,1.098-0.336c0.252-0.224,0.378-0.536,0.378-0.936c0-0.393-0.126-0.7-0.378-0.924
			c-0.252-0.225-0.634-0.337-1.146-0.337H7.208V88.51z M10.143,91.852c0.284-0.235,0.426-0.565,0.426-0.989
			s-0.144-0.756-0.432-0.996s-0.692-0.36-1.212-0.36H7.208v2.7h1.729C9.456,92.206,9.858,92.088,10.143,91.852z"/>
		<path d="M19.856,86.722v6.612h-1.38v-1.44c-0.168,0.488-0.46,0.866-0.876,1.135c-0.416,0.268-0.9,0.401-1.452,0.401
			c-0.768,0-1.384-0.248-1.848-0.744c-0.465-0.495-0.696-1.203-0.696-2.124v-3.84h1.368v3.696c0,0.6,0.151,1.063,0.456,1.386
			c0.304,0.324,0.72,0.486,1.248,0.486c0.544,0,0.979-0.176,1.308-0.528c0.328-0.352,0.492-0.863,0.492-1.536v-3.504H19.856z"/>
		<path d="M26.192,87.082c0.424,0.296,0.724,0.688,0.9,1.176v-1.536h1.368v6.612h-1.368v-1.536c-0.177,0.488-0.477,0.88-0.9,1.176
			c-0.424,0.297-0.936,0.444-1.536,0.444c-0.576,0-1.09-0.136-1.542-0.408c-0.452-0.271-0.806-0.664-1.062-1.176
			s-0.384-1.116-0.384-1.812c0-0.688,0.128-1.288,0.384-1.801c0.256-0.512,0.609-0.903,1.062-1.176
			c0.452-0.271,0.966-0.408,1.542-0.408C25.257,86.638,25.769,86.786,26.192,87.082z M23.618,88.42
			c-0.364,0.389-0.546,0.922-0.546,1.603c0,0.68,0.182,1.214,0.546,1.602s0.851,0.582,1.458,0.582c0.385,0,0.729-0.09,1.032-0.271
			c0.304-0.18,0.544-0.434,0.72-0.762s0.265-0.712,0.265-1.151c0-0.433-0.089-0.814-0.265-1.146s-0.416-0.588-0.72-0.768
			c-0.304-0.181-0.647-0.271-1.032-0.271C24.469,87.838,23.982,88.032,23.618,88.42z"/>
		<path d="M36.152,87.358c0.464,0.496,0.695,1.204,0.695,2.124v3.852H35.48v-3.708c0-0.592-0.152-1.05-0.456-1.374
			c-0.305-0.324-0.721-0.486-1.248-0.486c-0.545,0-0.98,0.175-1.309,0.522s-0.492,0.857-0.492,1.53v3.516h-1.367v-8.88h1.367v3.72
			c0.177-0.496,0.473-0.88,0.889-1.151c0.416-0.272,0.896-0.408,1.439-0.408C35.072,86.614,35.688,86.862,36.152,87.358z"/>
		<path d="M42.956,88.414v1.152h-4.943v-1.152H42.956z"/>
		<path d="M50.858,87.046c0.451,0.272,0.806,0.664,1.062,1.176c0.256,0.513,0.384,1.112,0.384,1.801c0,0.695-0.128,1.3-0.384,1.812
			s-0.61,0.904-1.062,1.176c-0.452,0.272-0.967,0.408-1.542,0.408c-0.601,0-1.112-0.147-1.536-0.444
			c-0.425-0.296-0.721-0.688-0.889-1.176v1.536h-1.367v-8.88h1.367v3.804c0.168-0.487,0.464-0.88,0.889-1.176
			c0.424-0.296,0.936-0.444,1.536-0.444C49.892,86.638,50.406,86.774,50.858,87.046z M47.864,88.108
			c-0.305,0.18-0.544,0.436-0.72,0.768c-0.177,0.332-0.265,0.714-0.265,1.146c0,0.439,0.088,0.823,0.265,1.151
			c0.176,0.328,0.415,0.582,0.72,0.762c0.304,0.181,0.647,0.271,1.032,0.271c0.607,0,1.096-0.194,1.464-0.582
			c0.367-0.388,0.552-0.922,0.552-1.602c0-0.673-0.185-1.204-0.552-1.597c-0.368-0.392-0.856-0.588-1.464-0.588
			C48.512,87.838,48.168,87.928,47.864,88.108z"/>
		<path d="M60.224,86.722v6.612h-1.38v-1.44c-0.168,0.488-0.46,0.866-0.876,1.135c-0.416,0.268-0.899,0.401-1.452,0.401
			c-0.768,0-1.384-0.248-1.848-0.744c-0.464-0.495-0.696-1.203-0.696-2.124v-3.84h1.368v3.696c0,0.6,0.152,1.063,0.456,1.386
			c0.304,0.324,0.72,0.486,1.248,0.486c0.544,0,0.979-0.176,1.308-0.528c0.328-0.352,0.492-0.863,0.492-1.536v-3.504H60.224z"/>
		<path d="M66.56,87.082c0.424,0.296,0.724,0.688,0.9,1.176v-1.536h1.368v6.612H67.46v-1.536c-0.177,0.488-0.477,0.88-0.9,1.176
			c-0.424,0.297-0.936,0.444-1.536,0.444c-0.576,0-1.09-0.136-1.542-0.408c-0.452-0.271-0.806-0.664-1.062-1.176
			s-0.384-1.116-0.384-1.812c0-0.688,0.128-1.288,0.384-1.801c0.256-0.512,0.609-0.903,1.062-1.176
			c0.452-0.271,0.966-0.408,1.542-0.408C65.624,86.638,66.136,86.786,66.56,87.082z M63.985,88.42
			c-0.364,0.389-0.546,0.922-0.546,1.603c0,0.68,0.182,1.214,0.546,1.602s0.851,0.582,1.458,0.582c0.385,0,0.729-0.09,1.032-0.271
			c0.304-0.18,0.544-0.434,0.72-0.762s0.265-0.712,0.265-1.151c0-0.433-0.089-0.814-0.265-1.146s-0.416-0.588-0.72-0.768
			c-0.304-0.181-0.647-0.271-1.032-0.271C64.836,87.838,64.35,88.032,63.985,88.42z"/>
		<path d="M76.52,87.358c0.464,0.496,0.696,1.204,0.696,2.124v3.852h-1.368v-3.708c0-0.592-0.152-1.05-0.456-1.374
			s-0.72-0.486-1.248-0.486c-0.544,0-0.979,0.175-1.308,0.522s-0.492,0.857-0.492,1.53v3.516h-1.368v-8.88h1.368v3.72
			c0.176-0.496,0.472-0.88,0.888-1.151c0.416-0.272,0.896-0.408,1.44-0.408C75.439,86.614,76.056,86.862,76.52,87.358z"/>
		<path d="M83.504,87.082c0.424,0.296,0.724,0.688,0.899,1.176v-1.536h1.368v6.612h-1.368v-1.536
			c-0.176,0.488-0.476,0.88-0.899,1.176c-0.425,0.297-0.937,0.444-1.536,0.444c-0.576,0-1.091-0.136-1.542-0.408
			c-0.452-0.271-0.807-0.664-1.063-1.176s-0.384-1.116-0.384-1.812c0-0.688,0.128-1.288,0.384-1.801
			c0.256-0.512,0.61-0.903,1.063-1.176c0.451-0.271,0.966-0.408,1.542-0.408C82.567,86.638,83.079,86.786,83.504,87.082z
			 M80.93,88.42c-0.364,0.389-0.546,0.922-0.546,1.603c0,0.68,0.182,1.214,0.546,1.602s0.85,0.582,1.458,0.582
			c0.384,0,0.728-0.09,1.032-0.271c0.304-0.18,0.544-0.434,0.72-0.762s0.264-0.712,0.264-1.151c0-0.433-0.088-0.814-0.264-1.146
			s-0.416-0.588-0.72-0.768c-0.305-0.181-0.648-0.271-1.032-0.271C81.779,87.838,81.294,88.032,80.93,88.42z"/>
		<path d="M93.464,87.358c0.464,0.496,0.695,1.204,0.695,2.124v3.852h-1.367v-3.708c0-0.592-0.152-1.05-0.456-1.374
			c-0.305-0.324-0.721-0.486-1.248-0.486c-0.545,0-0.98,0.175-1.309,0.522s-0.492,0.857-0.492,1.53v3.516H87.92v-6.612h1.367v1.452
			c0.177-0.496,0.473-0.88,0.889-1.151c0.416-0.272,0.896-0.408,1.439-0.408C92.384,86.614,92.999,86.862,93.464,87.358z"/>
	</g>
</g>
<g id="DESIGNED_BY_FREEPIK">
</g>
</svg>
