<?xml version="1.0" encoding="utf-8"?>
<!-- Generator: Adobe Illustrator 16.0.0, SVG Export Plug-In . SVG Version: 6.00 Build 0)  -->
<!DOCTYPE svg PUBLIC "-//W3C//DTD SVG 1.1//EN" "http://www.w3.org/Graphics/SVG/1.1/DTD/svg11.dtd">
<svg version="1.1" xmlns="http://www.w3.org/2000/svg" xmlns:xlink="http://www.w3.org/1999/xlink" x="0px" y="0px" width="100px"
	 height="100px" viewBox="0 0 100 100" enable-background="new 0 0 100 100" xml:space="preserve">
<g id="OBJECTS">
	<g>
		<path fill="#729831" d="M45.731,15.813c-0.19,0.497-0.633,0.843-0.979,1.246c-1.126,1.311-1.162,3.431-0.08,4.779
			c0.632,0.788,1.574,1.311,2.091,2.178c1.175,1.972-0.317,4.783,0.946,6.699c0.858,1.302,2.69,1.672,3.576,2.956
			c2.735-0.484,4.619-3.705,3.698-6.326c-0.506-1.443-1.682-2.597-2.073-4.075c-0.467-1.767,0.266-3.596,0.727-5.365
			c0.46-1.769,0.533-3.935-0.857-5.121c-1.053-0.898-2.626-0.932-3.733-1.762c-1.292-0.971-1.616-2.729-2.246-4.217
			c-0.63-1.488-2.167-2.973-3.664-2.366c-1.097,1.475-0.625,3.59,0.233,5.215c0.859,1.625,2.07,3.123,2.407,4.929
			C45.853,14.992,45.88,15.426,45.731,15.813z"/>
		<path fill="#8EC124" d="M66.732,12.605c-0.303,1.735,0.834,3.35,1.785,4.833c0.951,1.483,1.771,3.415,0.877,4.933
			c-0.329,0.559-0.851,0.974-1.378,1.352c-1.191,0.855-2.467,1.594-3.802,2.201c-0.047,2.449-1.341,4.843-3.364,6.224
			c-0.821,0.561-1.776,0.965-2.771,0.985c-2.753,0.055-4.663-2.664-5.876-5.136c-0.838-1.707-1.544-3.917-0.308-5.361
			c0.287-0.336,0.67-0.611,0.83-1.024c0.22-0.571-0.058-1.201-0.334-1.747c-1.135-2.247-2.353-4.574-2.39-7.091
			s1.55-5.263,4.046-5.587c1.088-0.142,2.259,0.174,3.255-0.286c1.032-0.476,1.541-1.622,2.292-2.475
			c1.543-1.755,4.383-2.192,6.383-0.982s2.931,3.928,2.091,6.11C67.669,10.594,66.923,11.507,66.732,12.605z"/>
		<path fill="#84AA39" d="M37.147,13.694c0.872,1.283,2.58,1.608,4.09,1.963s3.212,1.075,3.576,2.583
			c0.134,0.555,0.058,1.138-0.043,1.7c-0.229,1.271-0.584,2.52-1.057,3.721c1.47,1.578,2.118,3.884,1.685,5.997
			c-0.176,0.857-0.532,1.699-1.148,2.32c-1.708,1.722-4.582,1.172-6.864,0.352c-1.575-0.567-3.375-1.532-3.479-3.203
			c-0.024-0.389,0.051-0.797-0.102-1.156c-0.21-0.496-0.772-0.724-1.281-0.9c-2.094-0.726-4.29-1.452-5.855-3.022
			c-1.565-1.569-2.244-4.278-0.863-6.012c0.602-0.755,1.535-1.273,1.884-2.175c0.36-0.933-0.019-1.97-0.067-2.969
			c-0.099-2.056,1.43-4.072,3.437-4.531c2.006-0.46,4.259,0.69,5.065,2.583C36.509,11.848,36.596,12.882,37.147,13.694z"/>
		<path fill="#8EC124" d="M39.3,24.172c-0.001-1.286,0.518-2.586,0.191-3.83c-0.371-1.41-1.699-2.312-2.647-3.42
			c-1.308-1.529-1.91-3.827-0.945-5.593c0.331-0.607,0.822-1.116,1.16-1.721c0.56-1.005,0.601-2.25,0.205-3.326
			c-0.549-1.491,1.282-2.816,2.529-1.831c0.011,0.008,0.021,0.017,0.032,0.026c1.082,0.881,1.594,2.266,2.046,3.586
			c0.452,1.32,0.933,2.709,1.977,3.634c0.61,0.541,1.391,0.896,1.893,1.54c1.653,2.114-0.761,5.375,0.331,7.826
			c0.437,0.98,1.372,1.65,1.921,2.573c1.13,1.893,0.426,4.358-0.088,6.418c-0.143,0.57-0.453,1.1-0.933,1.437
			c-0.88,0.616-1.638,0.137-2.306-0.314C42.125,29.456,39.305,27.24,39.3,24.172z"/>
		<g>
			<path fill="#9E1A41" d="M58.554,34.362c-0.595-0.241-1.202-0.444-1.815-0.631c0.522-0.851,0.987-1.749,1.448-2.574
				c0.944-1.692,1.789-3.448,2.529-5.238c0.065-0.158,0.129-0.321,0.194-0.481c0.995-0.614,1.865-1.489,2.753-2.239
				c1.072-0.906,2.149-1.805,3.145-2.796c0.097-0.097-0.031-0.273-0.149-0.193c-1.049,0.713-2.037,1.504-3.024,2.3
				c-0.727,0.585-1.54,1.149-2.266,1.777c1.22-3.141,2.268-6.51,2.531-9.824c0.016-0.191-0.276-0.22-0.326-0.044
				c-0.663,2.371-1.235,4.726-1.953,7.052c-0.808-1.529-1.759-2.818-2.283-4.541c-0.616-2.023-0.633-4.206-0.312-6.281
				c0.019-0.125-0.158-0.182-0.194-0.054c-0.562,2.005-0.566,4.003-0.153,6.039c0.372,1.829,1.257,4.202,2.731,5.415
				c0.008,0.006,0.016,0.009,0.024,0.014c-0.314,0.98-0.656,1.956-1.049,2.924c-0.362,0.891-0.752,1.77-1.165,2.637
				c-2.524-3.007-3.558-6.509-3.659-10.396c-0.006-0.21-0.297-0.201-0.319,0c-0.438,3.939,1.099,7.974,3.609,10.963
				c0.021,0.025,0.044,0.037,0.067,0.053c-0.364,0.742-0.741,1.478-1.137,2.205c-0.564,1.037-1.265,2.023-1.907,3.031
				c-1.507-0.392-3.051-0.618-4.606-0.701c-0.325-1.747-0.588-3.504-0.819-5.266c-0.216-1.651-0.386-3.308-0.522-4.968
				c-0.135-1.661-0.125-3.367-0.395-5.011c-0.02-0.117-0.177-0.072-0.188,0.025c-0.398,3.227,0.114,6.737,0.464,9.953
				c0.167,1.533,0.393,3.06,0.639,4.582c0.034,0.216,0.068,0.435,0.102,0.655c-1.146-0.026-2.294,0.031-3.436,0.164
				c-0.27-0.451-0.53-0.907-0.784-1.367c-0.715-1.292-1.33-2.637-1.878-4.008c0.73-3.014,0.717-6.473-0.586-9.335
				c-0.056-0.123-0.226-0.03-0.205,0.087c0.519,2.801,0.782,5.348,0.353,8.106c-0.117-0.318-0.237-0.636-0.347-0.957
				c-1.442-4.209-1.752-8.434-2.109-12.823c-0.004-0.043-0.073-0.059-0.08-0.011c-0.357,2.539-0.166,5.218,0.312,7.824
				c-1.79-2.075-2.935-4.547-3.282-7.279c-0.012-0.096-0.158-0.103-0.155,0c0.112,2.967,1.172,5.672,3.153,7.892
				c0.128,0.143,0.296,0.113,0.403,0.011c0.288,1.429,0.654,2.83,1.062,4.167c0.625,2.053,1.463,4.037,2.431,5.95
				c0.292,0.58,0.608,1.209,0.948,1.844c-0.748,0.109-1.491,0.26-2.226,0.435c-0.138-0.147-0.279-0.293-0.411-0.444
				c-1.03-1.174-1.974-2.421-2.861-3.706c-1.313-1.9-2.327-3.929-3.416-5.939c-0.317-0.667-0.655-1.325-0.959-1.986
				c-0.773-1.685-1.513-3.398-2.401-5.025c-0.058-0.105-0.236-0.033-0.196,0.083c0.498,1.418,1.119,2.794,1.711,4.175
				c0.721,1.682,1.315,3.541,2.278,5.097c0.045,0.073,0.115,0.104,0.185,0.107c0.037,0.069,0.07,0.14,0.106,0.209
				c-1.358-0.746-2.612-1.626-3.783-2.659c-1.392-1.226-2.333-2.778-3.577-4.122c-0.047-0.051-0.141,0.001-0.118,0.068
				c1.161,3.366,4.803,6.086,7.847,7.628c0.054,0.028,0.106,0.035,0.157,0.033c0.592,1.024,1.233,2.015,1.875,2.959
				c0.825,1.214,1.743,2.523,2.759,3.726c-2.467,0.673-4.837,1.706-6.985,3.087c-3.905,2.511-7.256,6.33-7.963,10.919
				c-0.287,1.859-0.542,3.672,1.018,4.721c0.838,0.564,1.919,0.569,2.93,0.554c13.093-0.2,26.363-0.738,39.455-0.938
				C71.206,44.278,65.729,37.266,58.554,34.362z"/>
			<path fill="#FFFFFF" d="M61.442,39.431c-1.925-0.391-4.221-0.266-6.178-0.148c-0.186,0.011-0.178,0.261,0,0.283
				c1.951,0.244,4.228,0.513,6.178,0.248C61.639,39.788,61.626,39.469,61.442,39.431z"/>
			<path fill="#FFFFFF" d="M65.013,44.183c-2.648-0.406-5.465-0.25-8.145-0.334c-3.084-0.095-6.168-0.19-9.253-0.276
				c-0.083-0.003-0.082,0.123,0,0.127c2.892,0.157,5.784,0.308,8.675,0.457c2.846,0.146,5.834,0.569,8.676,0.371
				C65.152,44.515,65.22,44.214,65.013,44.183z"/>
			<path fill="#FFFFFF" d="M42.261,40.797c-2.677,0.187-5.612,0.011-8.218,0.69c-0.233,0.061-0.17,0.389,0.054,0.403
				c2.674,0.176,5.509-0.547,8.164-0.866C42.404,41.008,42.41,40.787,42.261,40.797z"/>
			<path fill="#FFFFFF" d="M48.131,35.466c-2.451,0.111-5.056-0.101-7.466,0.388c-0.287,0.058-0.199,0.466,0.065,0.484
				c2.433,0.162,4.978-0.397,7.401-0.611C48.295,35.711,48.3,35.458,48.131,35.466z"/>
			<path fill="#FFFFFF" d="M50.165,40.717c-1.122,0.051-2.242,0.097-3.356,0.247c-0.168,0.023-0.125,0.295,0.039,0.291
				c1.111-0.021,2.213-0.149,3.317-0.268C50.333,40.968,50.341,40.709,50.165,40.717z"/>
			<path fill="#FFFFFF" d="M56.543,35.646c-0.51-0.021-1.02-0.02-1.531-0.021c-0.158,0-0.158,0.247,0,0.246
				c0.511-0.001,1.021,0.002,1.531-0.02C56.676,35.846,56.676,35.652,56.543,35.646z"/>
		</g>
		<path fill="#562157" d="M17.692,79.975c-1.749-0.699-1.938-3.102-1.837-5.013c0.33-6.244,0.66-12.487,0.989-18.73
			c0.064-1.227,0.134-2.476,0.557-3.627c1.287-3.503,5.321-5.004,8.948-5.595c11.433-1.865,23.001,1.06,34.44,2.827
			c3.226,0.499,6.521,0.904,9.744,0.366c4.413-0.736,8.403-3.194,12.797-4.042c1.048,8.336,1.113,16.802,0.196,25.158
			c-0.18,1.638-0.421,3.34-1.332,4.705c-2.011,3.016-6.279,3.17-9.819,2.671c-8.549-1.205-16.736-4.334-25.265-5.676
			c-8.529-1.343-17.988-0.612-24.653,4.991C21.063,79.181,19.371,80.645,17.692,79.975z"/>
		<g>
			<path fill="#FFFFFF" d="M80.364,62.604c-2.489-0.053-5.168,0.333-7.627,0.721c-0.301,0.048-0.224,0.527,0.071,0.521
				c2.49-0.044,5.195-0.139,7.64-0.623C80.807,63.151,80.709,62.61,80.364,62.604z"/>
			<path fill="#FFFFFF" d="M76.349,56.42c-0.75,0.265-1.414,0.783-2.086,1.202c-0.767,0.479-1.545,0.949-2.253,1.511
				c-0.083,0.066,0.007,0.223,0.105,0.182c0.73-0.308,1.424-0.697,2.116-1.082c0.782-0.437,1.682-0.813,2.35-1.411
				C76.757,56.664,76.573,56.341,76.349,56.42z"/>
			<path fill="#FFFFFF" d="M74.778,70.129c-0.668-0.826-1.677-1.5-2.565-2.076c-0.169-0.109-0.347,0.135-0.211,0.273
				c0.743,0.758,1.601,1.609,2.545,2.102C74.747,70.531,74.912,70.294,74.778,70.129z"/>
			<path fill="#FFFFFF" d="M73.75,53.584c-0.502,0.409-0.894,0.98-1.308,1.476c-0.383,0.457-0.748,0.928-1.111,1.4
				c-0.071,0.092,0.08,0.199,0.158,0.121c0.467-0.462,0.928-0.929,1.375-1.409c0.405-0.436,0.867-0.853,1.183-1.359
				C74.167,53.618,73.907,53.456,73.75,53.584z"/>
			<path fill="#FFFFFF" d="M70.93,71.637c-0.27-0.406-0.527-0.822-0.829-1.205c-0.103-0.13-0.268,0.036-0.212,0.164
				c0.19,0.435,0.432,0.848,0.657,1.265c0.204,0.376,0.383,0.797,0.696,1.094c0.139,0.132,0.377,0.002,0.325-0.189
				C71.453,72.348,71.166,71.993,70.93,71.637z"/>
			<path fill="#FFFFFF" d="M75.604,66.203c-0.89-0.271-1.871-0.322-2.793-0.431c-0.159-0.019-0.192,0.244-0.038,0.277
				c0.909,0.198,1.852,0.464,2.785,0.496C75.76,66.553,75.789,66.26,75.604,66.203z"/>
			<path fill="#FFFFFF" d="M75.101,60.916c-0.842,0.041-1.754,0.26-2.556,0.513c-0.146,0.046-0.127,0.286,0.038,0.277
				c0.837-0.047,1.771-0.159,2.569-0.415C75.349,61.227,75.323,60.905,75.101,60.916z"/>
		</g>
		<g>
			<path fill="#FFFFFF" d="M18.604,59.183c2.488-0.053,5.168,0.333,7.627,0.72c0.3,0.048,0.223,0.528-0.071,0.523
				c-2.49-0.045-5.195-0.14-7.64-0.624C18.161,59.73,18.258,59.189,18.604,59.183z"/>
			<path fill="#FFFFFF" d="M22.62,52.999c0.75,0.264,1.413,0.782,2.086,1.202c0.766,0.478,1.544,0.948,2.253,1.51
				c0.083,0.065-0.007,0.224-0.105,0.182c-0.731-0.308-1.424-0.696-2.116-1.083c-0.782-0.435-1.681-0.813-2.351-1.411
				C22.211,53.242,22.394,52.92,22.62,52.999z"/>
			<path fill="#FFFFFF" d="M24.19,66.707c0.668-0.826,1.677-1.5,2.564-2.075c0.17-0.11,0.347,0.135,0.211,0.272
				c-0.742,0.758-1.601,1.611-2.545,2.102C24.221,67.11,24.056,66.872,24.19,66.707z"/>
			<path fill="#FFFFFF" d="M25.218,50.163c0.502,0.409,0.893,0.981,1.308,1.475c0.382,0.457,0.748,0.929,1.111,1.401
				c0.071,0.091-0.079,0.197-0.157,0.12c-0.467-0.461-0.927-0.929-1.375-1.409c-0.406-0.437-0.866-0.853-1.183-1.36
				C24.801,50.197,25.061,50.035,25.218,50.163z"/>
			<path fill="#FFFFFF" d="M28.038,68.214c0.269-0.404,0.528-0.821,0.829-1.203c0.103-0.13,0.269,0.035,0.212,0.163
				c-0.19,0.436-0.431,0.848-0.657,1.266c-0.205,0.375-0.384,0.797-0.696,1.093c-0.141,0.133-0.378,0.002-0.325-0.189
				C27.515,68.927,27.801,68.571,28.038,68.214z"/>
			<path fill="#FFFFFF" d="M23.363,62.783c0.889-0.272,1.871-0.324,2.793-0.433c0.159-0.019,0.192,0.244,0.038,0.278
				c-0.91,0.197-1.852,0.463-2.785,0.495C23.208,63.131,23.179,62.838,23.363,62.783z"/>
			<path fill="#FFFFFF" d="M23.867,57.494c0.842,0.042,1.754,0.261,2.556,0.513c0.147,0.046,0.126,0.286-0.038,0.277
				c-0.837-0.047-1.771-0.159-2.568-0.416C23.619,57.805,23.645,57.484,23.867,57.494z"/>
		</g>
	</g>
	<g>
		<path d="M28.075,88.346v3.832h-1.594v-9.875h3.356c1.138,0,1.993,0.271,2.566,0.812s0.86,1.282,0.86,2.224
			c0,0.933-0.294,1.667-0.881,2.203c-0.588,0.536-1.437,0.805-2.546,0.805H28.075z M31.643,85.338c0-0.56-0.156-0.986-0.469-1.279
			c-0.313-0.294-0.813-0.441-1.504-0.441h-1.595v3.428h1.595C30.984,87.045,31.643,86.476,31.643,85.338z"/>
		<path d="M37.964,84.785c0.485-0.293,1.044-0.44,1.679-0.44v1.734h-0.476c-0.699,0-1.262,0.171-1.686,0.511
			c-0.425,0.341-0.637,0.902-0.637,1.686v3.902h-1.594v-7.707h1.594v1.511C37.106,85.478,37.479,85.079,37.964,84.785z"/>
		<path d="M46.958,84.849c0.597,0.317,1.063,0.774,1.398,1.371s0.504,1.296,0.504,2.098c0,0.812-0.168,1.516-0.504,2.112
			s-0.802,1.054-1.398,1.37c-0.597,0.317-1.269,0.476-2.015,0.476s-1.415-0.158-2.007-0.476c-0.592-0.316-1.059-0.776-1.398-1.378
			c-0.341-0.601-0.511-1.303-0.511-2.104s0.17-1.501,0.511-2.098c0.34-0.597,0.807-1.054,1.398-1.371s1.261-0.476,2.007-0.476
			S46.361,84.531,46.958,84.849z M43.811,86.037c-0.345,0.187-0.622,0.474-0.832,0.86s-0.314,0.86-0.314,1.42
			c0,0.568,0.104,1.044,0.314,1.427c0.21,0.382,0.487,0.667,0.832,0.854s0.723,0.279,1.133,0.279s0.788-0.093,1.133-0.279
			c0.346-0.187,0.623-0.472,0.833-0.854c0.21-0.383,0.314-0.858,0.314-1.427c0-0.56-0.104-1.033-0.314-1.42s-0.487-0.674-0.833-0.86
			c-0.345-0.187-0.723-0.279-1.133-0.279S44.155,85.851,43.811,86.037z"/>
		<path d="M62.812,85.212c0.546,0.578,0.818,1.403,0.818,2.476v4.49h-1.595v-4.322c0-0.671-0.167-1.19-0.503-1.56
			c-0.336-0.368-0.798-0.552-1.385-0.552c-0.625,0-1.121,0.198-1.489,0.594c-0.369,0.396-0.553,0.978-0.553,1.741v4.099h-1.595
			v-4.322c0-0.671-0.168-1.19-0.504-1.56c-0.335-0.368-0.797-0.552-1.385-0.552c-0.624,0-1.121,0.198-1.489,0.594
			c-0.368,0.396-0.553,0.978-0.553,1.741v4.099h-1.594v-7.707h1.594v1.608c0.196-0.56,0.522-0.988,0.979-1.286
			c0.457-0.299,0.993-0.448,1.608-0.448c0.644,0,1.2,0.159,1.672,0.476c0.471,0.317,0.813,0.774,1.027,1.371
			c0.224-0.578,0.583-1.03,1.077-1.356c0.494-0.327,1.054-0.49,1.679-0.49C61.537,84.345,62.267,84.634,62.812,85.212z"/>
		<path d="M71.616,84.849c0.597,0.317,1.063,0.774,1.399,1.371c0.335,0.597,0.503,1.296,0.503,2.098
			c0,0.812-0.168,1.516-0.503,2.112c-0.336,0.597-0.803,1.054-1.399,1.37c-0.597,0.317-1.268,0.476-2.014,0.476
			s-1.415-0.158-2.007-0.476c-0.593-0.316-1.059-0.776-1.399-1.378c-0.34-0.601-0.511-1.303-0.511-2.104s0.171-1.501,0.511-2.098
			c0.341-0.597,0.807-1.054,1.399-1.371c0.592-0.317,1.261-0.476,2.007-0.476S71.02,84.531,71.616,84.849z M68.47,86.037
			c-0.346,0.187-0.623,0.474-0.832,0.86c-0.21,0.387-0.315,0.86-0.315,1.42c0,0.568,0.105,1.044,0.315,1.427
			c0.209,0.382,0.486,0.667,0.832,0.854c0.345,0.187,0.723,0.279,1.133,0.279s0.788-0.093,1.133-0.279s0.622-0.472,0.832-0.854
			c0.21-0.383,0.314-0.858,0.314-1.427c0-0.56-0.104-1.033-0.314-1.42s-0.487-0.674-0.832-0.86s-0.723-0.279-1.133-0.279
			S68.814,85.851,68.47,86.037z"/>
	</g>
</g>
<g id="DESIGNED_BY_FREEPIK">
</g>
</svg>
